<?xml version="1.0" standalone="no"?><!DOCTYPE svg PUBLIC "-//W3C//DTD SVG 1.1//EN" "http://www.w3.org/Graphics/SVG/1.1/DTD/svg11.dtd"><svg t="1659371170678" class="icon" viewBox="0 0 1024 1024" version="1.1" xmlns="http://www.w3.org/2000/svg" p-id="6782" xmlns:xlink="http://www.w3.org/1999/xlink" width="200" height="200"><defs><style type="text/css">@font-face { font-family: feedback-iconfont; src: url("//at.alicdn.com/t/font_1031158_u69w8yhxdu.woff2?t=1630033759944") format("woff2"), url("//at.alicdn.com/t/font_1031158_u69w8yhxdu.woff?t=1630033759944") format("woff"), url("//at.alicdn.com/t/font_1031158_u69w8yhxdu.ttf?t=1630033759944") format("truetype"); }
</style></defs><path d="M613.056 69.333333a37.333333 37.333333 0 0 1 3.050667 74.538667l-3.050667 0.128H316.074667a129.408 129.408 0 0 0-129.322667 124.544l-0.085333 4.864v477.184a129.408 129.408 0 0 0 124.544 129.322667l4.864 0.085333h391.850666a129.408 129.408 0 0 0 129.322667-124.544l0.085333-4.864V431.168a37.333333 37.333333 0 0 1 74.538667-3.072l0.128 3.072v319.424c0 110.762667-88.234667 200.917333-198.250667 203.989333l-5.824 0.085334H316.074667c-110.762667 0-200.917333-88.234667-203.989334-198.250667l-0.085333-5.824V273.408c0-110.762667 88.234667-200.917333 198.250667-203.989333l5.824-0.085334h296.96z" p-id="6783"></path><path d="M847.424 123.797333a37.333333 37.333333 0 0 1 56.810667 48.32l-2.346667 2.752-320 341.333334a37.333333 37.333333 0 0 1-56.789333-48.32l2.346666-2.752 320-341.333334zM597.333333 709.333333a37.333333 37.333333 0 0 1 3.072 74.538667L597.333333 784H341.333333a37.333333 37.333333 0 0 1-3.072-74.538667L341.333333 709.333333h256zM426.666667 560a37.333333 37.333333 0 0 1 3.072 74.538667L426.666667 634.666667h-85.333334a37.333333 37.333333 0 0 1-3.072-74.538667L341.333333 560h85.333334z" p-id="6784"></path></svg>