<?xml version="1.0" standalone="no"?><!DOCTYPE svg PUBLIC "-//W3C//DTD SVG 1.1//EN" "http://www.w3.org/Graphics/SVG/1.1/DTD/svg11.dtd"><svg t="1659173636284" class="icon" viewBox="0 0 1024 1024" version="1.1" xmlns="http://www.w3.org/2000/svg" p-id="12155" xmlns:xlink="http://www.w3.org/1999/xlink" width="200" height="200"><defs><style type="text/css">@font-face { font-family: feedback-iconfont; src: url("//at.alicdn.com/t/font_1031158_u69w8yhxdu.woff2?t=1630033759944") format("woff2"), url("//at.alicdn.com/t/font_1031158_u69w8yhxdu.woff?t=1630033759944") format("woff"), url("//at.alicdn.com/t/font_1031158_u69w8yhxdu.ttf?t=1630033759944") format("truetype"); }
</style></defs><path d="M800.3 894.1H223.7c-22.8 0-41.4-18.6-41.4-41.4V451.8c0-22.8 18.6-41.4 41.4-41.4h576.7c22.8 0 41.4 18.6 41.4 41.4v400.8c-0.1 22.9-18.6 41.5-41.5 41.5zM223.7 438c-7.6 0-13.8 6.2-13.8 13.8v400.8c0 7.6 6.2 13.8 13.8 13.8h576.7c7.6 0 13.8-6.2 13.8-13.8V451.8c0-7.6-6.2-13.8-13.8-13.8H223.7z" fill="#4D4D4D" p-id="12156"></path><path d="M717.2 438c-7.6 0-13.8-6.2-13.8-13.8V111.7c0-11-9-20-20-20H340.6c-11 0-20 9-20 20v310c0 7.6-6.2 13.8-13.8 13.8s-13.8-6.2-13.8-13.8v-310c0-26.2 21.3-47.6 47.6-47.6h342.8c26.3 0 47.6 21.4 47.6 47.6v312.6c0 7.6-6.1 13.7-13.8 13.7zM306.8 959.9c-7.6 0-13.8-6.2-13.8-13.8v-65.8c0-7.6 6.2-13.8 13.8-13.8s13.8 6.2 13.8 13.8v65.8c0 7.7-6.2 13.8-13.8 13.8zM717.2 959.9c-7.6 0-13.8-6.2-13.8-13.8v-65.8c0-7.6 6.2-13.8 13.8-13.8 7.6 0 13.8 6.2 13.8 13.8v65.8c0 7.7-6.1 13.8-13.8 13.8zM306.8 789.8c-7.6 0-13.8-6.2-13.8-13.8V530.6c0-7.6 6.2-13.8 13.8-13.8s13.8 6.2 13.8 13.8V776c0 7.7-6.2 13.8-13.8 13.8zM717.2 789.8c-7.6 0-13.8-6.2-13.8-13.8V530.6c0-7.6 6.2-13.8 13.8-13.8 7.6 0 13.8 6.2 13.8 13.8V776c0 7.7-6.1 13.8-13.8 13.8z" fill="#4D4D4D" p-id="12157"></path></svg>