<?xml version="1.0" standalone="no"?><!DOCTYPE svg PUBLIC "-//W3C//DTD SVG 1.1//EN" "http://www.w3.org/Graphics/SVG/1.1/DTD/svg11.dtd"><svg t="1659173965529" class="icon" viewBox="0 0 1024 1024" version="1.1" xmlns="http://www.w3.org/2000/svg" p-id="21727" xmlns:xlink="http://www.w3.org/1999/xlink" width="200" height="200"><defs><style type="text/css">@font-face { font-family: feedback-iconfont; src: url("//at.alicdn.com/t/font_1031158_u69w8yhxdu.woff2?t=1630033759944") format("woff2"), url("//at.alicdn.com/t/font_1031158_u69w8yhxdu.woff?t=1630033759944") format("woff"), url("//at.alicdn.com/t/font_1031158_u69w8yhxdu.ttf?t=1630033759944") format("truetype"); }
</style></defs><path d="M456.6528 56.098133C629.0944 35.754667 764.416 79.445333 854.391467 173.909333c76.100267 79.872 113.664 191.7952 107.52 299.025067-2.2528 39.509333-8.669867 77.1072-20.036267 124.330667l-4.113067 16.725333-16.042666 62.600533c-1.570133 6.280533-2.9696 12.014933-4.352 17.749334-17.271467 72.1408-2.338133 141.038933 41.8304 174.301866a34.133333 34.133333 0 0 1-3.976534 57.105067c-63.7952 35.4304-217.9584 16.622933-281.019733-28.484267a34.133333 34.133333 0 0 1 37.376-57.053866l2.338133 1.536c29.986133 21.4528 100.829867 35.4304 154.0608 34.440533l6.929067-0.238933-2.4576-4.010667c-30.72-51.643733-37.8368-119.483733-22.852267-187.4944l1.3824-5.9904 5.751467-23.296 11.707733-45.533867c2.781867-10.871467 5.0176-19.797333 7.0656-28.330666 10.496-43.588267 16.264533-77.431467 18.261334-112.264534 5.102933-89.002667-26.231467-182.3744-88.797867-248.029866-74.5472-78.250667-188.416-115.029333-340.309333-97.109334a34.133333 34.133333 0 0 1-8.004267-67.7888zM98.884267 303.138133a34.133333 34.133333 0 1 1 62.225066 28.091734C69.7344 533.623467 140.407467 720.708267 277.794133 754.688a34.133333 34.133333 0 1 1-16.401066 66.269867C79.496533 775.953067-8.9088 541.934933 98.884267 303.138133z" fill="#434343" p-id="21728"></path><path d="M583.236267 263.168a34.133333 34.133333 0 0 1 51.712-6.178133l1.928533 1.962666 186.897067 204.270934a34.133333 34.133333 0 0 1 8.96 23.04C832.733867 776.004267 683.3152 972.8 505.736533 972.8 326.4 972.8 170.666667 774.690133 170.666667 486.263467c0-5.137067 1.143467-10.018133 3.1744-14.3872l0.4608-0.9216 0.597333-1.877334a34.133333 34.133333 0 0 1 23.8592-21.998933l2.491733-0.529067a1028.608 1028.608 0 0 0 204.151467-58.299733c85.111467-34.167467 143.530667-73.2672 177.8176-125.098667z m181.077333 236.202667l-150.493867-164.488534-0.802133 0.9216c-43.178667 47.786667-103.5264 84.224-182.152533 115.797334a1095.748267 1095.748267 0 0 1-185.838934 56.046933l-5.7344 1.143467 0.034134 0.512c7.4752 238.1824 130.474667 391.953067 262.1952 395.178666l4.1984 0.0512c130.9696 0 251.050667-152.832 258.389333-394.752l0.221867-10.410666z" fill="#434343" p-id="21729"></path><path d="M631.466667 648.533333a34.133333 34.133333 0 0 1 30.958933 48.520534l-0.529067 1.092266c-35.703467 70.178133-80.64 115.0976-135.406933 132.3008l-5.341867 1.5872-18.295466-65.774933c35.037867-9.745067 66.9184-39.970133 95.0784-93.064533l3.106133-6.007467A34.0992 34.0992 0 0 1 631.466667 648.533333z" fill="#00B386" p-id="21730"></path></svg>